<svg width="128" height="128" viewBox="0 0 128 128" xmlns="http://www.w3.org/2000/svg">
  <g stroke="#D73C2C" stroke-width="8" stroke-linecap="round" stroke-linejoin="round" fill="none">
    <path d="M20 66c0-22 22-40 44-40s44 18 44 40" />
    <path d="M20 82h88" />
    <path d="M24 102c7 10 20 16 38 16h4c18 0 31-6 38-16" />
    <path d="M24 82c6 0 9-8 14-8s8 8 13 8 8-8 13-8 8 8 13 8 8-8 13-8 8 8 13 8" />
  </g>
  <g fill="#D73C2C">
    <circle cx="58" cy="48" r="4" />
    <circle cx="70" cy="48" r="4" />
    <circle cx="64" cy="40" r="4" />
  </g>
</svg>
